# xmcd CD database file
#
# Track frame offsets:
#	150
#	18843
#	35698
#	51540
#	66075
#	79709
#	94792
#	110504
#	127497
#	141786
#	159434
#	177682
#	195484
#	207920
#	222165
#	242342
#	254982
#	270513
#	286117
#
# Disc length: 4064 seconds
#
# Revision: 2
# Processed by: cddbd v1.5.2PL0 Copyright (c) Steve Scherf et al.
# Submitted via: CDex 1.51
#
DISCID=210fde13
DTITLE=Various Artist - Country Radio February 2008
DYEAR=2008
DGENRE=Country
TTITLE0=Kenny Chesney - Shiftwork
TTITLE1=Trisha Yearwood feat Josh Turner - Another Try
TTITLE2=Carrie Underwood - All-American Girl
TTITLE3=Rockie Lynne - I Can't Believe It's Me
TTITLE4=Miranda Lambert - Gunpowder and Lead
TTITLE5=Joe Nichols - It Ain't No Crime
TTITLE6=Jypsi - I Don't Love You Like That
TTITLE7=Emma Mae Jacob - What If We Fly
TTITLE8=Townsend O'Donnell - Cowboys Want It (Cowgirls Got It)
TTITLE9=Tracy Lawrence - Til I Was A Daddy Too
TTITLE10=Charlie Allen - See If I Care
TTITLE11=Collin Raye - Quitters
TTITLE12=Wild Horses - Viva Viagra
TTITLE13=Kane Welch Kaplin - Dark Boogie #7
TTITLE14=Tommy Alverson - Country To The Bone
TTITLE15=Amy LaVere - Time Is A Train
TTITLE16=The Gougers - Everybody Knows
TTITLE17=Bruce Robison - Lifeline
TTITLE18=DeLana Stevens - Good Enough For Me
EXTD=YEAR: 2008
EXTT0=
EXTT1=
EXTT2=
EXTT3=
EXTT4=
EXTT5=
EXTT6=
EXTT7=
EXTT8=
EXTT9=
EXTT10=
EXTT11=
EXTT12=
EXTT13=
EXTT14=
EXTT15=
EXTT16=
EXTT17=
EXTT18=
PLAYORDER=
